<svg xmlns="http://www.w3.org/2000/svg" width="56" height="48" version="1.1"><defs><filter id="blur" width="1.403" height="1.5" x="-.207" y="-.211"><feGaussianBlur in="SourceAlpha" stdDeviation="3"/><feOffset dx="0" dy="4" result="offsetblur"/><feComponentTransfer><feFuncA slope=".05" type="linear"/></feComponentTransfer><feMerge><feMergeNode/><feMergeNode in="SourceGraphic"/></feMerge></filter><style type="text/css">@keyframes am-weather-frost{0%,16%{-webkit-transform:translate(0,0);-moz-transform:translate(0,0);-ms-transform:translate(0,0);transform:translate(0,0)}1%,13%,5%,9%{-webkit-transform:translate(.3px,0);-moz-transform:translate(.3px,0);-ms-transform:translate(.3px,0);transform:translate(.3px,0)}11%,15%,3%,7%{-webkit-transform:translate(-.3px,0);-moz-transform:translate(-.3px,0);-ms-transform:translate(-.3px,0);transform:translate(-.3px,0)}}.am-weather-frost{-webkit-animation-name:am-weather-frost;-moz-animation-name:am-weather-frost;animation-name:am-weather-frost;-webkit-animation-duration:1.11s;-moz-animation-duration:1.11s;animation-duration:1.11s;-webkit-animation-timing-function:linear;-moz-animation-timing-function:linear;animation-timing-function:linear;-webkit-animation-iteration-count:infinite;-moz-animation-iteration-count:infinite;animation-iteration-count:infinite}</style></defs><g filter="url(#blur)" transform="translate(0,2)"><g style="-moz-animation-duration:1.11s;-moz-animation-iteration-count:infinite;-moz-animation-name:am-weather-frost;-moz-animation-timing-function:linear;-webkit-animation-duration:1.11s;-webkit-animation-iteration-count:infinite;-webkit-animation-name:am-weather-frost;-webkit-animation-timing-function:linear" fill="none" stroke="#57a0ee" stroke-linecap="round" stroke-width="2" class="am-weather-frost"><path d="M11,32H45" transform="translate(0,2)"/><path d="M15.5,37H40.5" transform="translate(0,2)"/><path d="M22.5,42H33.5" transform="translate(0,2)"/></g><g><path fill="none" stroke="#57a0ee" stroke-linecap="round" stroke-width="2" d="M28,31V9M28,22l11,-3.67M34,20l2,-4M34,20l4,2M28,22l-11,-3.67M22,20l-2,-4M22,20l-4,2M28,14.27l3.01,-3.02M28,14.27l-3.01,-3.02" transform="translate(0,0)"/></g></g></svg>